<svg width="18" height="18" viewBox="0 0 18 18" fill="none" xmlns="http://www.w3.org/2000/svg">
<g clip-path="url(#clip0_392_27)">
<path d="M17.4148 4.30722L15.1566 1.25622C14.8789 0.867971 14.5126 0.551496 14.0882 0.333027C13.6638 0.114558 13.1934 0.000384773 12.7161 -2.91958e-05H5.28357C4.80855 -0.000475069 4.34021 0.111888 3.91709 0.327813C3.49398 0.543738 3.12819 0.857052 2.84982 1.24197L0.551072 4.31472C0.176795 4.84249 -0.0164942 5.47728 0.00013535 6.12407C0.0167649 6.77087 0.242419 7.39488 0.643322 7.90272L7.23732 17.1487C7.44746 17.4148 7.7153 17.6297 8.02062 17.7772C8.32593 17.9246 8.66076 18.0008 8.99982 18C9.3447 17.9993 9.68483 17.9195 9.99403 17.7667C10.3032 17.6139 10.5733 17.3922 10.7833 17.1187L17.3248 7.97547C17.7437 7.46021 17.9798 6.82054 17.996 6.15671C18.0123 5.49288 17.8079 4.8424 17.4148 4.30722ZM13.9438 2.13822L16.2073 5.19672C16.2193 5.21322 16.2223 5.23272 16.2343 5.24997H12.5653L11.4943 1.49997H12.7161C12.9568 1.50072 13.1938 1.55904 13.4074 1.67007C13.621 1.7811 13.8049 1.94162 13.9438 2.13822ZM8.99982 14.3385L6.97482 6.74997H11.0248L8.99982 14.3385ZM6.99432 5.24997L8.06532 1.49997H9.93432L11.0053 5.24997H6.99432ZM4.06257 2.12772C4.20173 1.93376 4.38503 1.77568 4.59733 1.66653C4.80964 1.55738 5.04486 1.50029 5.28357 1.49997H6.50532L5.43432 5.24997H1.73832C1.74882 5.23347 1.75182 5.21322 1.76382 5.19747L4.06257 2.12772ZM1.83582 6.99372C1.78167 6.91723 1.73519 6.83559 1.69707 6.74997H5.42382L7.66932 15.1725L1.83582 6.99372ZM10.3281 15.18L12.5781 6.74997H16.3176C16.2693 6.86192 16.2081 6.96788 16.1353 7.06572L10.3281 15.18Z" fill="white"/>
</g>
<defs>
<clipPath id="clip0_392_27">
<rect width="18" height="18" fill="white"/>
</clipPath>
</defs>
</svg>
