<svg width="22" height="22" viewBox="0 0 22 22" fill="none" xmlns="http://www.w3.org/2000/svg">
<g clip-path="url(#clip0_32_121)">
<path d="M12.4482 18.9347C13.1848 18.934 13.902 18.698 14.4951 18.2609L20.5827 13.7968C21.0215 13.4745 21.3783 13.0536 21.6242 12.5678C21.8701 12.0821 21.9983 11.5454 21.9983 11.0009C21.9983 10.4565 21.8701 9.91975 21.6242 9.43405C21.3783 8.94834 21.0215 8.52734 20.5827 8.20511L14.4951 3.74095C13.9958 3.37405 13.4073 3.14763 12.7909 3.08523C12.1744 3.02283 11.5525 3.12673 10.9898 3.38613C10.4272 3.64553 9.94426 4.05094 9.59135 4.56021C9.23845 5.06948 9.02844 5.66401 8.98316 6.28195L5.51633 3.73911C4.99944 3.36103 4.38799 3.13343 3.74969 3.08151C3.1114 3.02959 2.4712 3.15539 1.90001 3.44497C1.32882 3.73455 0.848951 4.17661 0.513563 4.72216C0.178175 5.26771 0.000362396 5.89546 -0.000171661 6.53586V15.4642C-9.53674e-06 16.1051 0.177692 16.7333 0.513218 17.2794C0.848743 17.8254 1.32898 18.2677 1.90063 18.5574C2.47229 18.8471 3.11302 18.9727 3.75174 18.9204C4.39046 18.8681 5.0022 18.6398 5.51908 18.2609L8.98316 15.7181C9.04814 16.5921 9.44104 17.4093 10.0831 18.0058C10.7252 18.6023 11.569 18.9341 12.4454 18.9347H12.4482ZM9.89341 12.9993C9.6982 12.9993 9.50808 13.0616 9.35074 13.1771L4.43466 16.7824C4.191 16.9608 3.90269 17.0683 3.60168 17.0929C3.30068 17.1175 2.99875 17.0582 2.72935 16.9217C2.45995 16.7852 2.23362 16.5768 2.07543 16.3195C1.91725 16.0622 1.83339 15.7662 1.83316 15.4642V6.53586C1.8336 6.23384 1.91762 5.93783 2.07592 5.68062C2.23422 5.42341 2.46063 5.21503 2.73006 5.07856C2.99949 4.94209 3.30143 4.88285 3.60246 4.90741C3.90348 4.93196 4.19183 5.03936 4.43558 5.2177L9.34983 8.82295C9.48641 8.92327 9.64812 8.98377 9.81701 8.99772C9.9859 9.01168 10.1554 8.97854 10.3065 8.902C10.4577 8.82545 10.5848 8.70849 10.6735 8.56411C10.7622 8.41973 10.8092 8.25358 10.8092 8.08411V6.53586C10.8093 6.2337 10.8931 5.93748 11.0513 5.68006C11.2095 5.42265 11.436 5.2141 11.7056 5.07757C11.9751 4.94103 12.2772 4.88185 12.5784 4.90659C12.8795 4.93132 13.1679 5.03901 13.4116 5.2177L19.4982 9.68186C19.7053 9.83366 19.8737 10.0321 19.9898 10.2611C20.1059 10.4901 20.1664 10.7433 20.1664 11C20.1664 11.2568 20.1059 11.5099 19.9898 11.7389C19.8737 11.968 19.7053 12.1664 19.4982 12.3182L13.4116 16.7824C13.1679 16.9608 12.8796 17.0683 12.5786 17.0929C12.2776 17.1175 11.9757 17.0582 11.7063 16.9217C11.4369 16.7852 11.2105 16.5768 11.0523 16.3195C10.8942 16.0622 10.8103 15.7662 10.8101 15.4642V13.9159C10.8101 13.6728 10.7135 13.4397 10.5416 13.2678C10.3697 13.0959 10.1365 12.9993 9.89341 12.9993Z" fill="white"/>
</g>
<defs>
<clipPath id="clip0_32_121">
<rect width="22" height="22" fill="white" transform="matrix(-1 0 0 1 22 0)"/>
</clipPath>
</defs>
</svg>
