<svg width="27" height="27" viewBox="0 0 27 27" fill="none" xmlns="http://www.w3.org/2000/svg">
<path d="M26.7985 12.5786C25.8107 10.4186 21.9374 3.375 13.4999 3.375C5.06236 3.375 1.18898 10.4186 0.20123 12.5786C0.0686357 12.8681 0 13.1827 0 13.5011C0 13.8195 0.0686357 14.1342 0.20123 14.4236C1.18898 16.5814 5.06236 23.625 13.4999 23.625C21.9374 23.625 25.8107 16.5814 26.7985 14.4214C26.9308 14.1322 26.9993 13.818 26.9993 13.5C26.9993 13.182 26.9308 12.8678 26.7985 12.5786ZM13.4999 21.375C6.40448 21.375 3.09361 15.3383 2.24986 13.5124C3.09361 11.6618 6.40448 5.625 13.4999 5.625C20.5784 5.625 23.8904 11.6359 24.7499 13.5C23.8904 15.3641 20.5784 21.375 13.4999 21.375Z" fill="#393E42"/>
<path d="M13.5 7.87534C12.3875 7.87534 11.2999 8.20524 10.3749 8.82332C9.44989 9.4414 8.72892 10.3199 8.30318 11.3477C7.87744 12.3756 7.76604 13.5066 7.98309 14.5977C8.20013 15.6889 8.73586 16.6911 9.52253 17.4778C10.3092 18.2645 11.3115 18.8002 12.4026 19.0173C13.4938 19.2343 14.6248 19.1229 15.6526 18.6972C16.6804 18.2714 17.5589 17.5504 18.177 16.6254C18.7951 15.7004 19.125 14.6129 19.125 13.5003C19.1232 12.009 18.53 10.5793 17.4755 9.52483C16.421 8.47033 14.9913 7.87712 13.5 7.87534ZM13.5 16.8753C12.8325 16.8753 12.18 16.6774 11.625 16.3065C11.0699 15.9357 10.6374 15.4086 10.3819 14.7919C10.1265 14.1752 10.0596 13.4966 10.1899 12.8419C10.3201 12.1872 10.6415 11.5859 11.1135 11.1139C11.5855 10.6418 12.1869 10.3204 12.8416 10.1902C13.4963 10.06 14.1749 10.1268 14.7916 10.3822C15.4083 10.6377 15.9354 11.0703 16.3062 11.6253C16.6771 12.1803 16.875 12.8328 16.875 13.5003C16.875 14.3954 16.5194 15.2539 15.8865 15.8868C15.2536 16.5198 14.3951 16.8753 13.5 16.8753Z" fill="#393E42"/>
</svg>
