<svg width="110" height="80" viewBox="0 0 110 80" fill="none" xmlns="http://www.w3.org/2000/svg">
<path d="M62.246 80C65.9297 79.9966 69.5158 78.8064 72.4813 76.603L102.921 54.0952C105.116 52.4706 106.9 50.348 108.129 47.8991C109.359 45.4502 110 42.7439 110 39.999C110 37.2541 109.359 34.5477 108.129 32.0989C106.9 29.65 105.116 27.5274 102.921 25.9027L72.4813 3.39494C69.9847 1.5451 67.0422 0.403511 63.9597 0.0888994C60.8773 -0.225712 57.7675 0.29815 54.9539 1.606C52.1403 2.91385 49.7256 4.95791 47.961 7.52559C46.1963 10.0933 45.1462 13.0908 44.9198 16.2064L27.5844 3.3857C24.9998 1.47947 21.9423 0.331904 18.7506 0.0701483C15.559 -0.191608 12.3577 0.442664 9.50157 1.90269C6.64543 3.36272 4.24591 5.5915 2.56886 8.34211C0.891792 11.0927 0.00267029 14.2578 0 17.4866V62.5022C0.000816345 65.7333 0.889389 68.901 2.56713 71.6539C4.24488 74.4068 6.6462 76.6373 9.50468 78.0978C12.3632 79.5583 15.567 80.1917 18.7609 79.9279C21.9547 79.664 25.0136 78.5132 27.5982 76.603L44.9198 63.7824C45.2447 68.189 47.2094 72.3089 50.42 75.3165C53.6306 78.3241 57.8499 79.997 62.2323 80H62.246ZM49.4714 50.0743C48.4953 50.0743 47.5446 50.3884 46.7579 50.971L22.1757 69.1482C20.9573 70.0478 19.5157 70.5896 18.0105 70.7137C16.5054 70.8377 14.9956 70.539 13.6486 69.8508C12.3015 69.1626 11.1697 68.1116 10.3787 66.8145C9.58776 65.5174 9.16845 64.0248 9.1673 62.5022V17.4866C9.1695 15.9638 9.58965 14.4714 10.3812 13.1746C11.1728 11.8777 12.3048 10.8271 13.6521 10.139C14.9994 9.45095 16.5092 9.15228 18.0144 9.2761C19.5196 9.39992 20.9615 9.94139 22.1803 10.8405L46.7533 29.0178C47.4362 29.5236 48.2448 29.8286 49.0893 29.899C49.9338 29.9693 50.7812 29.8023 51.5372 29.4163C52.2932 29.0304 52.9283 28.4407 53.372 27.7128C53.8156 26.9848 54.0505 26.1471 54.0504 25.2927V17.4866C54.051 15.9631 54.4701 14.4696 55.2613 13.1717C56.0525 11.8739 57.1849 10.8224 58.5327 10.134C59.8806 9.44565 61.3913 9.14726 62.8971 9.27197C64.4029 9.39668 65.845 9.93962 67.0634 10.8405L97.4989 33.3483C98.5343 34.1137 99.3764 35.1142 99.9568 36.2689C100.537 37.4236 100.84 38.6999 100.84 39.9944C100.84 41.2889 100.537 42.5652 99.9568 43.7198C99.3764 44.8745 98.5343 45.8751 97.4989 46.6404L67.0634 69.1482C65.845 70.0478 64.4034 70.5896 62.8983 70.7137C61.3931 70.8377 59.8834 70.539 58.5363 69.8508C57.1892 69.1626 56.0574 68.1116 55.2665 66.8145C54.4755 65.5174 54.0562 64.0248 54.055 62.5022V54.6961C54.055 53.4703 53.5721 52.2948 52.7125 51.428C51.8529 50.5613 50.687 50.0743 49.4714 50.0743Z" fill="#FFDE10"/>
</svg>
