<svg width="22" height="18" viewBox="0 0 22 18" fill="none" xmlns="http://www.w3.org/2000/svg">
<path d="M12.4492 17.0685C13.1859 17.0678 13.9032 16.8179 14.4963 16.3552L20.5843 11.6284C21.0231 11.2872 21.3799 10.8414 21.6259 10.3271C21.8718 9.81284 22 9.24449 22 8.66805C22 8.0916 21.8718 7.52324 21.6259 7.00896C21.3799 6.49468 21.0231 6.04892 20.5843 5.70773L14.4963 0.980937C13.9969 0.592458 13.4084 0.352715 12.7919 0.286644C12.1755 0.220574 11.5535 0.330589 10.9908 0.605246C10.4281 0.879904 9.94512 1.30917 9.5922 1.8484C9.23927 2.38763 9.02924 3.01713 8.98396 3.67143L5.51689 0.978996C4.99997 0.578674 4.38847 0.337677 3.75013 0.282706C3.11179 0.227736 2.47154 0.360937 1.90031 0.667554C1.32909 0.97417 0.849182 1.44223 0.513771 2.01988C0.17836 2.59752 0.000535965 3.26221 0 3.94028V13.3939C0.000164032 14.0724 0.177877 14.7377 0.513428 15.3158C0.848976 15.8939 1.32924 16.3623 1.90094 16.6691C2.47263 16.9758 3.11341 17.1088 3.75217 17.0534C4.39094 16.998 5.00272 16.7563 5.51964 16.3552L8.98396 13.6627C9.04894 14.5881 9.44187 15.4534 10.084 16.085C10.7261 16.7166 11.57 17.0679 12.4465 17.0685H12.4492ZM9.89427 10.7839C9.69905 10.7839 9.50892 10.8499 9.35157 10.9722L4.43514 14.7896C4.19146 14.9785 3.90313 15.0923 3.60211 15.1183C3.30108 15.1444 2.99913 15.0817 2.72971 14.9371C2.4603 14.7926 2.23394 14.5719 2.07575 14.2995C1.91755 14.0271 1.83369 13.7136 1.83346 13.3939V3.94028C1.8339 3.62049 1.91793 3.30707 2.07624 3.03472C2.23455 2.76238 2.46097 2.54174 2.73042 2.39724C2.99987 2.25274 3.30184 2.19002 3.60288 2.21602C3.90392 2.24202 4.1923 2.35574 4.43606 2.54456L9.35065 6.36191C9.48724 6.46814 9.64897 6.5322 9.81787 6.54697C9.98677 6.56175 10.1562 6.52666 10.3074 6.44561C10.4586 6.36456 10.5857 6.24072 10.6744 6.08785C10.7631 5.93497 10.8101 5.75905 10.8101 5.57961V3.94028C10.8102 3.62034 10.894 3.30669 11.0523 3.03413C11.2105 2.76157 11.437 2.54076 11.7065 2.39619C11.9761 2.25163 12.2782 2.18896 12.5794 2.21515C12.8806 2.24134 13.169 2.35537 13.4127 2.54456L19.4998 7.27136C19.7069 7.43209 19.8753 7.64221 19.9914 7.8847C20.1074 8.12718 20.1679 8.39522 20.1679 8.66707C20.1679 8.93893 20.1074 9.20696 19.9914 9.44945C19.8753 9.69194 19.7069 9.90206 19.4998 10.0628L13.4127 14.7896C13.169 14.9785 12.8807 15.0923 12.5797 15.1183C12.2786 15.1444 11.9767 15.0817 11.7073 14.9371C11.4378 14.7926 11.2115 14.5719 11.0533 14.2995C10.8951 14.0271 10.8112 13.7136 10.811 13.3939V11.7545C10.811 11.4971 10.7144 11.2502 10.5425 11.0682C10.3706 10.8862 10.1374 10.7839 9.89427 10.7839Z" fill="white"/>
</svg>
