<svg width="22" height="16" viewBox="0 0 22 16" fill="none" xmlns="http://www.w3.org/2000/svg">
<path d="M12.4484 15.9347C13.1851 15.9341 13.9023 15.698 14.4953 15.261L20.5829 10.7968C21.0217 10.4746 21.3785 10.0536 21.6245 9.56788C21.8704 9.08217 21.9985 8.5454 21.9985 8.00098C21.9985 7.45656 21.8704 6.91978 21.6245 6.43408C21.3785 5.94837 21.0217 5.52737 20.5829 5.20514L14.4953 0.740976C13.996 0.374081 13.4076 0.147659 12.7911 0.0852592C12.1747 0.0228595 11.5528 0.126762 10.9901 0.386159C10.4274 0.645556 9.9445 1.05097 9.5916 1.56024C9.23869 2.06951 9.02868 2.66404 8.98341 3.28198L5.51657 0.739143C4.99969 0.361063 4.38823 0.133456 3.74994 0.0815401C3.11165 0.0296237 2.47144 0.155424 1.90025 0.445005C1.32907 0.734585 0.849195 1.17664 0.513807 1.72219C0.178419 2.26774 0.000606537 2.89549 7.24792e-05 3.53589V12.4642C0.000234604 13.1051 0.177937 13.7334 0.513462 14.2794C0.848988 14.8254 1.32922 15.2678 1.90088 15.5574C2.47253 15.8471 3.11326 15.9728 3.75198 15.9204C4.3907 15.8681 5.00244 15.6398 5.51932 15.261L8.98341 12.7181C9.04838 13.5921 9.44129 14.4093 10.0834 15.0058C10.7254 15.6023 11.5692 15.9341 12.4457 15.9347H12.4484ZM9.89366 9.99931C9.69845 9.99929 9.50833 10.0616 9.35099 10.1771L4.4349 13.7824C4.19124 13.9608 3.90293 14.0683 3.60193 14.0929C3.30092 14.1175 2.99899 14.0582 2.72959 13.9217C2.4602 13.7852 2.23386 13.5768 2.07567 13.3195C1.91749 13.0623 1.83364 12.7662 1.8334 12.4642V3.53589C1.83384 3.23387 1.91787 2.93786 2.07617 2.68065C2.23447 2.42344 2.46087 2.21506 2.7303 2.07859C2.99973 1.94212 3.30168 1.88288 3.6027 1.90744C3.90372 1.932 4.19207 2.03939 4.43582 2.21773L9.35007 5.82298C9.48665 5.9233 9.64837 5.9838 9.81725 5.99775C9.98614 6.01171 10.1556 5.97857 10.3068 5.90203C10.458 5.82548 10.585 5.70852 10.6737 5.56414C10.7624 5.41976 10.8094 5.25361 10.8094 5.08414V3.53589C10.8095 3.23373 10.8933 2.93751 11.0516 2.68009C11.2098 2.42268 11.4362 2.21413 11.7058 2.0776C11.9754 1.94107 12.2775 1.88188 12.5786 1.90662C12.8798 1.93135 13.1682 2.03904 13.4118 2.21773L19.4985 6.68189C19.7056 6.83369 19.874 7.03214 19.99 7.26115C20.1061 7.49017 20.1666 7.74331 20.1666 8.00006C20.1666 8.25681 20.1061 8.50995 19.99 8.73897C19.874 8.96798 19.7056 9.16643 19.4985 9.31823L13.4118 13.7824C13.1682 13.9608 12.8798 14.0683 12.5788 14.0929C12.2778 14.1175 11.9759 14.0582 11.7065 13.9217C11.4371 13.7852 11.2108 13.5768 11.0526 13.3195C10.8944 13.0623 10.8106 12.7662 10.8103 12.4642V10.916C10.8103 10.6729 10.7137 10.4397 10.5418 10.2678C10.3699 10.0959 10.1368 9.99931 9.89366 9.99931Z" fill="white"/>
</svg>
